<?xml version="1.0" encoding="UTF-8"?>
<!DOCTYPE svg PUBLIC "-//W3C//DTD SVG 1.1//EN" "http://www.w3.org/Graphics/SVG/1.1/DTD/svg11.dtd">
<!-- Creator: CorelDRAW -->
<svg xmlns="http://www.w3.org/2000/svg" xml:space="preserve" width="98.9811mm" height="98.9811mm" version="1.1" style="shape-rendering:geometricPrecision; text-rendering:geometricPrecision; image-rendering:optimizeQuality; fill-rule:evenodd; clip-rule:evenodd"
viewBox="0 0 4801.01 4801.01"
 xmlns:xlink="http://www.w3.org/1999/xlink"
 xmlns:xodm="http://www.corel.com/coreldraw/odm/2003">
 <defs>
  <style type="text/css">
   <![CDATA[
    .fil0 {fill:#FEFEFE}
    .fil1 {fill:#3A3A3A}
    .fil2 {fill:#3AB2E1}
   ]]>
  </style>
 </defs>
 <g id="Layer_x0020_1">
  <metadata id="CorelCorpID_0Corel-Layer"/>
  <rect class="fil0" x="-0" y="-0" width="4801.01" height="4801.01"/>
  <g id="_2037932837568">
   <g>
    <path class="fil1" d="M166.18 4268.13l-3.65 7.66 3.65 -7.66zm1089.64 -630.86l-288.39 638.52 -618.59 0c0,0 190.49,-189.35 508.94,-439.46 266.28,-209.14 370.91,-205.77 398.04,-199.06zm-633.22 -328.02l1151.61 -2419.39 381.09 755.9 -467.92 1035.99c-376.56,92.9 -810.17,336.1 -1064.78,627.5z"/>
   </g>
   <path class="fil2" d="M162.53 4275.79c0,0 249.66,-574.7 1441.74,-955.33 494.01,-157.74 2988.51,-543.81 3032.49,-1225.54 16.73,-259.33 -87.84,-393.18 -326.26,-460.1 -238.41,-66.93 -788.27,-0.5 -788.27,-0.5 142.54,-0.78 610.85,-9.07 621.83,169.28 12.65,205.58 -230.88,319.43 -230.88,319.43 -1348.91,591.97 -3101.82,501.4 -3750.64,2152.75z"/>
   <path class="fil2" d="M3073.68 3120.45c214.87,-63.02 436.3,-89.07 621.67,-210.85l664.81 1378.73 -721.52 0 -564.97 -1167.88zm282.83 -913.57c-274.36,6.93 -545.98,125.09 -646.86,161.06l-897.49 -1855.26 727.43 0 816.92 1694.2z"/>
  </g>
 </g>
</svg>
